<svg
  xmlns="http://www.w3.org/2000/svg"
  xml:space="preserve"
  width="24"
  height="24"
  style="shape-rendering:geometricPrecision;text-rendering:geometricPrecision;image-rendering:optimizeQuality;fill-rule:evenodd;clip-rule:evenodd"
  viewBox="0 0 847 847"
><defs><style>.fil1{fill:#fefefe}</style></defs><g id="Layer_x0020_1"><circle
      cx="423"
      cy="423"
      r="342"
      style="fill:#98c425"
    /><g id="_1965096675696"><path
        d="M601 326c10 0 20 4 27 11 6 7 11 16 11 27v120c0 10-5 20-11 27h-1c-6 7-16 11-26 11s-20-4-27-11v-1c-7-7-11-16-11-26V364c0-11 5-20 11-27 7-7 17-11 27-11zM246 326c10 0 19 4 26 11s11 16 11 27v120c0 10-4 20-11 27s-16 11-26 11c-11 0-20-4-27-11s-11-16-11-27V364c0-11 4-20 11-27s16-11 27-11z"
        class="fil1"
      /></g><path
      d="M558 336v192c0 12-5 23-13 31-7 7-18 12-30 12h-3v64c0 10-5 19-11 26h-1c-6 7-16 11-26 11s-20-4-27-11-11-16-11-26v-64h-26v64c0 10-4 20-11 26-7 7-16 11-26 11-11 0-20-4-27-11s-11-16-11-26v-64h-3c-12 0-23-5-31-12v-1c-8-8-12-18-12-30V336c0-5 4-10 10-10h249c6 0 10 5 10 10z"
      class="fil1"
    /><path
      d="M423 186c18 0 36 4 52 10l21-27c3-5 9-5 14-2 4 3 5 10 2 14l-19 24c7 5 14 10 21 16 24 22 40 52 43 87 1 5-3 10-8 10h-1v1H299c-5 0-10-5-10-10v-2c4-34 20-64 44-86l15-12-21-28c-4-4-3-11 1-14 5-3 11-3 14 2l24 30c17-8 37-13 57-13zm-43 57c9 0 16 7 16 16s-7 16-16 16-17-7-17-16 8-16 17-16zm87 0c9 0 16 7 16 16s-7 16-16 16-16-7-16-16 7-16 16-16z"
      style="fill:#fefefe"
    /></g></svg>
