<svg
  xmlns="http://www.w3.org/2000/svg"
  xml:space="preserve"
  width="24"
  height="24"
  fill="currentColor"
  viewBox="0 0 512 512"
>
  <path
    d="M508.852 167.869v-16.787H347.279V0h-16.787v151.082H179.41V0h-16.787v151.082H3.148v16.787h159.475v151.082H3.148v16.787h159.475V512h16.787V335.738h151.082V512h16.787V335.738h161.574v-16.787H347.279V167.869h161.573zm-178.36 151.082H179.41V167.869h151.082v151.082z"
  />
  <path
    d="M256 184.656c-32.398 0-58.754 26.356-58.754 58.754s26.356 58.754 58.754 58.754 58.754-26.356 58.754-58.754-26.356-58.754-58.754-58.754zm0 100.721c-23.141 0-41.967-18.827-41.967-41.967s18.826-41.967 41.967-41.967 41.967 18.827 41.967 41.967-18.826 41.967-41.967 41.967zm0-268.59c-32.398 0-58.754 26.356-58.754 58.754s26.356 58.754 58.754 58.754 58.754-26.356 58.754-58.754S288.398 16.787 256 16.787zm0 100.721c-23.141 0-41.967-18.827-41.967-41.967 0-23.14 18.826-41.967 41.967-41.967s41.967 18.827 41.967 41.967c0 23.14-18.826 41.967-41.967 41.967zm167.869 67.148c-32.398 0-58.754 26.356-58.754 58.754s26.356 58.754 58.754 58.754 58.754-26.356 58.754-58.754-26.356-58.754-58.754-58.754zm0 100.721c-23.141 0-41.967-18.827-41.967-41.967s18.826-41.967 41.967-41.967 41.967 18.827 41.967 41.967-18.826 41.967-41.967 41.967zM88.131 352.525c-32.398 0-58.754 26.356-58.754 58.754s26.356 58.754 58.754 58.754 58.754-26.356 58.754-58.754-26.356-58.754-58.754-58.754zm0 100.721c-23.141 0-41.967-18.827-41.967-41.967s18.826-41.967 41.967-41.967 41.967 18.827 41.967 41.967-18.825 41.967-41.967 41.967zM100 243.41l44.426-44.425a8.394 8.394 0 0 0-11.869-11.871L88.131 231.54l-44.426-44.426a8.394 8.394 0 0 0-11.869 11.871l44.426 44.425-44.426 44.425a8.392 8.392 0 0 0 0 11.871c1.637 1.638 3.787 2.458 5.934 2.458s4.297-.82 5.934-2.458L88.13 255.28l44.426 44.426c1.637 1.638 3.787 2.458 5.934 2.458s4.297-.82 5.934-2.458a8.392 8.392 0 0 0 0-11.871L100 243.41zm0-167.869 44.426-44.425a8.394 8.394 0 0 0-11.869-11.871L88.131 63.671 43.705 19.245a8.394 8.394 0 0 0-11.869 11.871l44.426 44.425-44.426 44.425a8.392 8.392 0 0 0 0 11.871c1.637 1.638 3.787 2.458 5.934 2.458s4.297-.82 5.934-2.458L88.13 87.411l44.426 44.426c1.637 1.638 3.787 2.458 5.934 2.458s4.297-.82 5.934-2.458a8.392 8.392 0 0 0 0-11.871L100 75.541zm335.738 0 44.426-44.425a8.394 8.394 0 0 0-11.869-11.871l-44.426 44.426-44.426-44.426a8.394 8.394 0 0 0-11.869 11.871L412 75.541l-44.426 44.425a8.392 8.392 0 0 0 0 11.871c1.637 1.638 3.787 2.458 5.934 2.458s4.297-.82 5.934-2.458l44.426-44.426 44.426 44.426c1.637 1.638 3.787 2.458 5.934 2.458s4.297-.82 5.934-2.458a8.392 8.392 0 0 0 0-11.871l-44.424-44.425zm0 335.738 44.426-44.425a8.394 8.394 0 0 0-11.869-11.871l-44.426 44.426-44.426-44.426a8.394 8.394 0 0 0-11.869 11.871L412 411.279l-44.426 44.425a8.392 8.392 0 0 0 0 11.871c1.637 1.638 3.787 2.458 5.934 2.458s4.297-.82 5.934-2.458l44.426-44.426 44.426 44.426c1.637 1.638 3.787 2.458 5.934 2.458s4.297-.82 5.934-2.458a8.392 8.392 0 0 0 0-11.871l-44.424-44.425zm-167.869 0 44.426-44.425a8.392 8.392 0 0 0 0-11.871c-3.274-3.277-8.594-3.277-11.869 0L256 399.409l-44.426-44.426c-3.274-3.277-8.594-3.277-11.869 0a8.392 8.392 0 0 0 0 11.871l44.426 44.425-44.426 44.425a8.392 8.392 0 0 0 0 11.871c1.637 1.638 3.787 2.458 5.934 2.458s4.297-.82 5.934-2.458L256 423.148l44.426 44.426c1.637 1.638 3.787 2.458 5.934 2.458s4.297-.82 5.934-2.458a8.392 8.392 0 0 0 0-11.871l-44.425-44.424z"
  />
</svg>
